#!OML:ASF F:\VICON\USERDATA\INSTALL\rory3\rory3.ASF
:FULLY-SPECIFIED
:DEGREES
785
root 9.46307 17.6805 -5.24096 -154.858 66.2534 -168.008
lowerback 26.2213 0.950415 -5.00232
upperback 8.44631 0.835138 -1.24043
thorax -5.15077 0.77629 1.2271
lowerneck -16.3385 -0.50969 -9.4634
upperneck 31.5674 1.91516 4.47025
head 13.2124 0.622978 3.77951
rclavicle -2.78299e-014 4.77083e-014
rhumerus -21.2049 4.77612 -87.8904
rradius 69.2319
rwrist -9.68754
rhand -22.9201 5.38481
rfingers 7.12502
rthumb 3.52027 -24.5659
lclavicle -2.78299e-014 4.77083e-014
lhumerus -0.752729 -19.538 80.9039
lradius 45.0771
lwrist 17.434
lhand -22.7342 35.3986
lfingers 7.12502
lthumb 3.69982 65.3463
rfemur -30.3987 9.15942 16.3098
rtibia 35.0779
rfoot -17.6375 6.33227
rtoes -5.33263
lfemur -38.4654 -6.17385 -5.86852
ltibia 32.3288
lfoot -7.07665 -7.5644
ltoes -9.44062
786
root 9.41679 17.6871 -5.33889 -152.772 66.8303 -166.489
lowerback 26.618 0.730951 -5.00343
upperback 8.68595 0.563863 -1.35336
thorax -5.05912 0.653386 1.18237
lowerneck -16.6024 -0.353785 -9.69378
upperneck 31.0674 2.09747 4.63185
head 13.034 0.690009 3.88843
rclavicle 2.54444e-014 -6.59965e-014
rhumerus -21.3175 4.50405 -87.6042
rradius 69.0791
rwrist -9.93575
rhand -23.9201 4.46571
rfingers 7.12502
rthumb 2.55453 -25.4987
lclavicle 2.54444e-014 -6.59965e-014
lhumerus 0.817563 -18.9984 79.7272
lradius 43.73
lwrist 18.0706
lhand -22.6003 35.345
lfingers 7.12502
lthumb 3.8291 65.2903
rfemur -30.9341 9.24168 16.2248
rtibia 34.3928
rfoot -17.3037 6.8585
rtoes -4.90002
lfemur -39.2325 -6.13745 -5.48268
ltibia 32.7636
lfoot -7.19645 -6.79233
ltoes -9.464
787
root 9.37521 17.692 -5.43102 -150.237 67.4606 -164.379
lowerback 27.0296 0.60054 -5.07967
upperback 9.0078 0.406689 -1.35251
thorax -4.88789 0.583686 1.27256
lowerneck -17.0881 -0.1846 -9.90556
upperneck 30.7004 2.35201 4.72049
head 12.9548 0.7788 3.98666
rclavicle -2.06736e-014 3.18055e-014
rhumerus -21.3846 4.3817 -87.1247
rradius 68.8315
rwrist -10.2141
rhand -24.784 4.03484
rfingers 7.12502
rthumb 1.72014 -25.938
lclavicle -2.06736e-014 3.18055e-014
lhumerus 2.44392 -18.4939 78.6038
lradius 42.3807
lwrist 18.7807
lhand -27.8846 38.7696
lfingers 7.12502
lthumb -1.27447 68.7456
rfemur -31.3297 9.37094 16.4075
rtibia 33.6694
rfoot -17.1074 7.18892
rtoes -6.61073
lfemur -39.8542 -5.50575 -5.13481
ltibia 33.261
lfoot -7.35631 -6.50755
ltoes -9.63508
788
root 9.33019 17.6944 -5.52349 -147.668 68.04 -162.198
lowerback 27.6043 0.574756 -5.22988
upperback 9.27306 0.35114 -1.31499
thorax -4.85989 0.564182 1.4127
lowerneck -17.521 -0.0443884 -9.96315
upperneck 30.4196 2.53787 4.77705
head 12.9082 0.852805 4.03938
rclavicle 6.36111e-015 -2.38542e-014
rhumerus -21.4794 3.90454 -86.5475
rradius 68.4227
rwrist -10.8726
rhand -25.0083 4.8522
rfingers 7.12502
rthumb 1.50357 -25.1222
lclavicle 6.36111e-015 -2.38542e-014
lhumerus 4.06097 -17.7326 77.7887
lradius 40.9432
lwrist 18.8815
lhand -28.9772 39.4204
lfingers 7.12502
lthumb -2.3297 69.3874
rfemur -31.7225 9.41495 16.6184
rtibia 32.9551
rfoot -16.9544 7.5031
rtoes -8.52714
lfemur -40.4491 -4.81957 -4.84482
ltibia 33.7494
lfoot -7.51295 -6.27771
ltoes -9.40235
789
root 9.29023 17.6914 -5.59676 -143.373 69.2925 -158.541
lowerback 27.758 1.00303 -5.86491
upperback 9.38968 0.725573 -1.33245
thorax -4.81843 0.734091 1.64062
lowerneck -17.8466 0.129897 -9.61161
upperneck 30.1653 2.72479 4.56709
head 12.861 0.940172 3.91746
rclavicle -3.33958e-014 1.11319e-014
rhumerus -21.6896 3.43798 -86.1176
rradius 68.0934
rwrist -11.7152
rhand -25.1944 5.12324
rfingers 7.12502
rthumb 1.32383 -24.8524
lclavicle -3.33958e-014 1.11319e-014
lhumerus 5.55176 -17.0059 76.9119
lradius 39.5721
lwrist 19.0938
lhand -25.2831 36.2423
lfingers 7.12502
lthumb 1.23815 66.2185
rfemur -32.6364 10.0454 16.8534
rtibia 32.2731
rfoot -16.8162 8.16734
rtoes -9.13561
lfemur -41.1186 -2.95322 -4.55655
ltibia 34.2439
lfoot -7.84014 -6.37637
ltoes -8.49939
790
root 9.24751 17.6867 -5.69754 -142.253 69.0188 -157.741
lowerback 28.8276 0.541504 -5.51216
upperback 9.52746 0.200282 -1.46232
thorax -5.1363 0.508712 1.44913
lowerneck -17.8777 0.332765 -9.13295
upperneck 29.7697 2.86074 4.40528
head 12.699 1.032 3.77304
rclavicle 3.65764e-014 -4.29375e-014
rhumerus -22.0552 3.01028 -85.8686
rradius 67.7501
rwrist -12.3755
rhand -25.5035 4.55793
rfingers 7.12502
rthumb 1.02531 -25.4194
lclavicle 3.65764e-014 -4.29375e-014
lhumerus 6.82498 -17.1352 75.5243
lradius 38.4448
lwrist 20.2556
lhand -25.9932 36.7964
lfingers 7.12502
lthumb 0.552275 66.7755
rfemur -32.6465 9.33 17.0283
rtibia 31.6784
rfoot -17.2542 8.20126
rtoes -11.7008
lfemur -41.8539 -1.71306 -4.98324
ltibia 34.6098
lfoot -8.0666 -7.82377
ltoes -7.65253
